# Blender v2.71 (sub 0) OBJ File: 'zajebancija.blend'
# www.blender.org
mtllib zid_bocni2_testiram.mtl
v 0.204589 -0.960889 1.398240
v 0.204589 0.136333 0.974337
v 0.118672 -0.960889 1.398298
v 0.118672 0.136333 0.974395
v 0.130522 -0.964681 1.385265
v 0.192739 -0.964681 1.385223
v 0.130522 0.132541 0.961362
v 0.192740 0.132541 0.961320
v 0.118672 0.282631 0.767318
v 0.204589 0.282631 0.767260
v 0.130522 0.269068 0.767061
v 0.192740 0.269068 0.767019
v 0.118672 0.282631 0.511024
v 0.204589 0.282631 0.510965
v 0.130522 0.269068 0.506899
v 0.192740 0.269068 0.506857
v 0.204589 -0.101710 1.061134
v 0.118672 -0.533384 1.226085
v 0.130522 -0.105502 1.048159
v 0.130522 -0.537175 1.213052
v 0.118672 -0.101710 1.061192
v 0.192740 -0.537175 1.213010
v 0.192740 -0.105502 1.048117
v 0.204589 -0.533384 1.226027
v 0.130522 -0.572939 1.227459
v 0.192740 -0.572940 1.227417
v 0.130522 -0.928007 1.370492
v 0.192739 -0.928007 1.370450
v 0.130522 -0.499204 1.198548
v 0.192740 -0.499204 1.198506
v 0.130522 -0.138477 1.060755
v 0.192740 -0.138477 1.060713
v 0.143871 -0.599343 1.219220
v 0.179391 -0.599343 1.219195
v 0.143871 -0.914682 1.346248
v 0.179391 -0.914682 1.346224
v 0.143871 -0.485266 1.174481
v 0.179391 -0.485266 1.174457
v 0.143871 -0.164904 1.052108
v 0.179391 -0.164904 1.052084
v 0.192740 -0.071771 1.035818
v 0.130522 -0.071771 1.035860
v 0.130522 0.253042 0.789868
v 0.192740 0.253043 0.789826
v 0.145858 0.227712 0.796513
v 0.177404 0.227712 0.796492
v 0.147623 0.123862 0.946388
v 0.175639 0.123862 0.946369
v 0.177404 -0.057587 1.012529
v 0.145858 -0.057587 1.012551
v 0.118672 0.511100 0.454147
v 0.204589 0.511100 0.454089
v 0.118672 0.339507 0.454147
v 0.204590 0.339508 0.454089
v 0.130521 0.328916 0.446112
v 0.192739 0.328916 0.446070
v 0.130393 0.511100 0.444477
v 0.192868 0.511100 0.444435
v 0.130522 0.269068 0.737754
v 0.192740 0.269068 0.737711
v 0.130412 0.483848 0.444721
v 0.192849 0.483848 0.444679
v 0.145454 0.254457 0.499858
v 0.177808 0.254457 0.499836
v 0.145454 0.254457 0.704880
v 0.177808 0.254457 0.704858
v 0.147264 0.321738 0.431570
v 0.175997 0.321738 0.431551
v 0.147213 0.459332 0.430335
v 0.176048 0.459333 0.430316
vt 0.012004 0.407073
vt 0.012004 0.422584
vt 0.035109 0.422584
vt 0.035109 0.407073
vt 0.156451 0.450746
vt 0.152008 0.459737
vt 0.285332 0.459737
vt 0.281324 0.450745
vt 0.266666 0.450745
vt 0.042908 0.442180
vt 0.062577 0.432019
vt 0.063524 0.415884
vt 0.043508 0.405430
vt 0.018654 0.449470
vt 0.018775 0.459737
vt 0.033002 0.459737
vt 0.145064 0.459737
vt 0.143066 0.449470
vt 0.144233 0.449646
vt 0.186473 0.459737
vt 0.183278 0.449926
vt 0.035109 0.438936
vt 0.012005 0.438936
vt 0.068051 0.444146
vt 0.083896 0.432179
vt 0.085034 0.414407
vt 0.068192 0.403240
vt 0.270800 0.401301
vt 0.253917 0.413128
vt 0.255381 0.430911
vt 0.271374 0.442236
vt 0.259943 0.432836
vt 0.258408 0.415141
vt 0.275144 0.403323
vt 0.275829 0.444146
vt 0.079019 0.412580
vt 0.077812 0.430289
vt 0.062151 0.401418
vt 0.061899 0.442236
vt 0.053286 0.442644
vt 0.067414 0.431912
vt 0.068435 0.418013
vt 0.053782 0.407482
vt 0.284033 0.406310
vt 0.270313 0.417416
vt 0.269482 0.431627
vt 0.284032 0.442242
vt 0.169412 0.404312
vt 0.170916 0.417434
vt 0.170963 0.432960
vt 0.169536 0.446114
vt 0.213428 0.445042
vt 0.213128 0.432301
vt 0.165972 0.432661
vt 0.165479 0.443439
vt 0.191582 0.451189
vt 0.261684 0.459732
vt 0.274913 0.459737
vt 0.274876 0.451189
vt 0.166418 0.417144
vt 0.166080 0.406364
vt 0.287928 0.417988
vt 0.213547 0.417996
vt 0.287001 0.433372
vt 0.214004 0.405263
vt 0.304472 0.406359
vt 0.303868 0.445042
vt 0.291121 0.459734
vt 0.019573 0.449468
vt 0.043110 0.449466
vt 0.269280 0.449466
vt 0.292061 0.449466
vt 0.152481 0.449470
vt 0.038127 0.449470
vt 0.019248 0.449470
vn -0.000400 -0.818200 -0.574900
vn -0.677700 -0.601100 -0.423600
vn 0.000300 -0.913800 0.406300
vn 0.753100 -0.657900 0.000000
vn -0.753100 -0.657900 -0.000000
vn -0.735300 -0.481200 -0.477300
vn -0.000600 -0.342600 -0.939500
vn -0.000600 -0.356800 -0.934200
vn -0.000600 -0.373700 -0.927600
vn -0.000300 -0.876300 -0.481800
vn -0.000600 0.310700 -0.950500
vn 0.795000 -0.226700 -0.562700
vn -0.795200 -0.226500 -0.562400
vn -0.000600 0.297600 -0.954700
vn 0.795000 -0.216500 -0.566700
vn -0.795200 -0.216400 -0.566400
vn -0.000300 -0.865300 -0.501300
vn -0.000300 -0.854200 -0.520000
vn -0.000700 -0.254100 -0.967200
vn 0.709800 -0.579400 -0.400600
vn -0.000400 -0.822000 -0.569500
vn -0.710100 -0.579200 -0.400400
vn -0.725200 -0.232900 -0.647900
vn 0.724800 -0.233100 -0.648400
vn -0.695600 -0.506900 -0.509000
vn 0.735000 -0.481400 -0.477600
vn 0.601700 0.003900 0.798700
vn -0.601000 0.003900 0.799200
vn 0.000000 -1.000000 -0.000000
vn -0.000700 -0.009000 -1.000000
vn 0.699400 -0.714700 0.000000
vn -0.699400 -0.714700 -0.000000
vn 0.656300 -0.007100 -0.754400
vn -0.656900 -0.007100 -0.753900
vn -0.000500 -0.712300 -0.701800
vn 0.695300 -0.507200 -0.509300
vn 0.751300 -0.246600 -0.612100
vn -0.751700 -0.246400 -0.611800
vn -0.752200 -0.235100 -0.615500
vn 0.751900 -0.235300 -0.615900
vn -0.752600 -0.225600 -0.618700
vn 0.752200 -0.225700 -0.619000
vn 0.677400 -0.601300 -0.423700
usemtl Material
s off
f 43/1/1 11/2/1 12/3/1 44/4/1
f 7/5/2 4/6/2 9/7/2 11/8/2 43/9/2
f 59/10/3 65/11/3 66/12/3 60/13/3
f 10/14/4 12/15/4 60/16/4 16/17/4 14/18/4
f 9/14/5 13/18/5 15/17/5 59/16/5 11/15/5
f 53/19/6 55/17/6 15/20/6 13/21/6
f 41/22/7 23/3/7 19/2/7 42/23/7
f 30/22/8 22/3/8 20/2/8 29/23/8
f 26/4/9 25/1/9 20/2/9 22/3/9
f 27/24/10 35/25/10 36/26/10 28/27/10
f 6/4/9 5/1/9 27/2/9 28/3/9
f 32/28/11 40/29/11 39/30/11 31/31/11
f 23/3/8 32/4/8 31/1/8 19/2/8
f 36/26/9 35/25/9 33/32/9 34/33/9
f 28/27/12 36/26/12 34/33/12 26/34/12
f 25/35/13 33/32/13 35/25/13 27/24/13
f 26/34/14 34/33/14 33/32/14 25/35/14
f 40/29/8 38/36/8 37/37/8 39/30/8
f 30/38/15 38/36/15 40/29/15 32/28/15
f 31/31/16 39/30/16 37/37/16 29/39/16
f 29/39/17 37/37/17 38/36/17 30/38/17
f 42/40/18 50/41/18 49/42/18 41/43/18
f 44/44/19 46/45/19 45/46/19 43/47/19
f 44/44/20 8/48/20 48/49/20 46/45/20
f 45/46/21 46/45/21 48/49/21 47/50/21
f 45/46/22 47/50/22 7/51/22 43/47/22
f 48/49/7 49/42/7 50/41/7 47/50/7
f 7/51/23 47/50/23 50/41/23 42/40/23
f 41/43/24 49/42/24 48/49/24 8/48/24
f 55/52/25 67/53/25 63/54/25 15/55/25
f 14/21/26 16/20/26 56/17/26 54/19/26
f 53/56/27 55/20/27 61/57/27 57/58/27 51/59/27
f 58/58/28 62/57/28 56/20/28 54/56/28 52/59/28
f 11/2/29 59/23/29 60/22/29 12/3/29
f 58/22/30 62/3/30 61/2/30 57/23/30
f 65/11/29 63/54/29 64/60/29 66/12/29
f 60/13/31 66/12/31 64/60/31 16/61/31
f 15/55/32 63/54/32 65/11/32 59/10/32
f 70/62/30 68/63/30 67/53/30 69/64/30
f 56/65/33 68/63/33 70/62/33 62/66/33
f 61/67/34 69/64/34 67/53/34 55/52/34
f 63/54/35 67/53/35 68/63/35 64/60/35
f 16/61/36 64/60/36 68/63/36 56/65/36
f 24/68/37 1/15/37 6/69/37 28/70/37 26/71/37 22/72/37
f 18/68/38 20/72/38 25/71/38 27/70/38 5/69/38 3/15/38
f 31/71/39 29/70/39 20/69/39 18/15/39 21/68/39 19/72/39
f 24/15/40 22/69/40 30/70/40 32/71/40 23/72/40 17/68/40
f 7/73/41 42/74/41 19/75/41 21/15/41 4/6/41
f 41/74/42 8/73/42 2/6/42 17/15/42 23/75/42
f 10/7/43 2/6/43 8/5/43 44/9/43 12/8/43
