# Blender v2.71 (sub 0) OBJ File: 'zajebancija.blend'
# www.blender.org
mtllib score_item_1.mtl
v 0.004413 0.018470 0.013350
v 0.035779 0.182264 0.037300
v -0.000986 0.018978 0.016949
v 0.030380 0.182771 0.040899
v -0.006949 0.019756 0.019436
v 0.024417 0.183549 0.043387
v -0.013248 0.020775 0.020717
v 0.018117 0.184569 0.044667
v -0.019641 0.021996 0.020741
v 0.011725 0.185789 0.044691
v -0.025882 0.023371 0.019508
v 0.005484 0.187165 0.043458
v -0.031730 0.024849 0.017065
v -0.000365 0.188642 0.041015
v -0.036962 0.026371 0.013506
v -0.005597 0.190164 0.037456
v -0.041377 0.027880 0.008968
v -0.010011 0.191673 0.032918
v -0.044803 0.029317 0.003624
v -0.013438 0.193110 0.027575
v -0.047111 0.030628 -0.002318
v -0.015745 0.194421 0.021632
v -0.048211 0.031762 -0.008632
v -0.016845 0.195555 0.015318
v -0.048061 0.032675 -0.015074
v -0.016695 0.196468 0.008876
v -0.046667 0.033333 -0.021397
v -0.015301 0.197126 0.002553
v -0.044082 0.033709 -0.027358
v -0.012716 0.197503 -0.003408
v -0.040405 0.033790 -0.032728
v -0.009039 0.197584 -0.008778
v -0.035779 0.033573 -0.037300
v -0.004413 0.197366 -0.013350
v -0.030380 0.033065 -0.040899
v 0.000986 0.196859 -0.016949
v -0.024416 0.032287 -0.043387
v 0.006949 0.196080 -0.019437
v -0.018117 0.031268 -0.044667
v 0.013249 0.195061 -0.020717
v -0.011724 0.030047 -0.044691
v 0.019641 0.193841 -0.020741
v -0.005484 0.028672 -0.043458
v 0.025882 0.192465 -0.019508
v 0.000365 0.027195 -0.041015
v 0.031731 0.190988 -0.017065
v 0.005597 0.025673 -0.037456
v 0.036963 0.189466 -0.013506
v 0.010011 0.024164 -0.032918
v 0.041377 0.187957 -0.008968
v 0.013438 0.022726 -0.027575
v 0.044804 0.186519 -0.003625
v 0.015745 0.021415 -0.021632
v 0.047111 0.185209 0.002318
v 0.016846 0.020282 -0.015318
v 0.048211 0.184075 0.008632
v 0.016695 0.019368 -0.008876
v 0.048061 0.183162 0.015074
v 0.015301 0.018711 -0.002553
v 0.046667 0.182504 0.021397
v 0.012716 0.018334 0.003408
v 0.044082 0.182127 0.027358
v 0.009040 0.018253 0.008778
v 0.040405 0.182046 0.032728
v 0.011560 0.055791 0.018807
v 0.028632 0.144943 0.031843
v 0.023233 0.145450 0.035442
v 0.006161 0.056299 0.022406
v 0.017270 0.146228 0.037929
v 0.000198 0.057077 0.024894
v 0.010971 0.147247 0.039210
v -0.006102 0.058096 0.026174
v 0.004578 0.148468 0.039234
v -0.012494 0.059317 0.026198
v -0.001663 0.149844 0.038001
v -0.018735 0.060692 0.024965
v -0.007511 0.151321 0.035558
v -0.024584 0.062170 0.022522
v -0.012743 0.152843 0.031999
v -0.029816 0.063692 0.018963
v -0.017158 0.154352 0.027460
v -0.034230 0.065201 0.014425
v -0.020584 0.155789 0.022117
v -0.037657 0.066638 0.009082
v -0.022892 0.157100 0.016175
v -0.039964 0.067949 0.003139
v -0.023992 0.158234 0.009861
v -0.041064 0.069083 -0.003175
v -0.023842 0.159147 0.003419
v -0.040914 0.069996 -0.009617
v -0.022448 0.159805 -0.002904
v -0.039520 0.070654 -0.015940
v -0.019863 0.160181 -0.008865
v -0.036935 0.071030 -0.021901
v -0.016186 0.160263 -0.014235
v -0.033258 0.071111 -0.027271
v -0.011560 0.160045 -0.018807
v -0.028632 0.070894 -0.031843
v -0.006161 0.159538 -0.022406
v -0.023233 0.070386 -0.035442
v -0.000197 0.158759 -0.024894
v -0.017269 0.069608 -0.037930
v 0.006102 0.157740 -0.026174
v -0.010970 0.068589 -0.039210
v 0.012495 0.156520 -0.026198
v -0.004578 0.067369 -0.039234
v 0.018735 0.155144 -0.024965
v 0.001663 0.065993 -0.038001
v 0.024584 0.153667 -0.022522
v 0.007512 0.064516 -0.035558
v 0.029816 0.152145 -0.018963
v 0.012744 0.062994 -0.031999
v 0.034230 0.150636 -0.014425
v 0.017158 0.061485 -0.027461
v 0.037657 0.149198 -0.009082
v 0.020585 0.060047 -0.022117
v 0.039965 0.147888 -0.003139
v 0.022892 0.058736 -0.016175
v 0.041065 0.146754 0.003175
v 0.023992 0.057603 -0.009861
v 0.040914 0.145840 0.009617
v 0.023842 0.056689 -0.003419
v 0.039520 0.145183 0.015940
v 0.022448 0.056032 0.002904
v 0.036935 0.144806 0.021901
v 0.019863 0.055655 0.008865
v 0.033259 0.144725 0.027270
v 0.016186 0.055574 0.014235
vt 0.830943 0.353681
vt 0.830943 0.373483
vt 0.744999 0.373484
vt 0.830944 0.393286
vt 0.830945 0.413088
vt 0.745001 0.413090
vt 0.830947 0.432890
vt 0.745003 0.432892
vt 0.830950 0.452693
vt 0.745006 0.452695
vt 0.830953 0.472495
vt 0.745008 0.472497
vt 0.830956 0.492297
vt 0.745011 0.492300
vt 0.830959 0.512100
vt 0.830962 0.531903
vt 0.745017 0.531905
vt 0.830964 0.551706
vt 0.745019 0.551708
vt 0.830966 0.571509
vt 0.745021 0.571511
vt 0.830968 0.591312
vt 0.745023 0.591313
vt 0.830970 0.611114
vt 0.830973 0.630917
vt 0.745027 0.630919
vt 0.830975 0.650720
vt 0.745029 0.650722
vt 0.830975 0.017045
vt 0.830973 0.036846
vt 0.745032 0.036845
vt 0.830971 0.056648
vt 0.745030 0.056646
vt 0.830969 0.076450
vt 0.745028 0.076448
vt 0.830967 0.096252
vt 0.745026 0.096250
vt 0.830965 0.116054
vt 0.745024 0.116052
vt 0.830963 0.135856
vt 0.745021 0.135854
vt 0.830961 0.155658
vt 0.830958 0.175460
vt 0.745016 0.175458
vt 0.830956 0.195262
vt 0.745013 0.195260
vt 0.830954 0.215064
vt 0.745010 0.215062
vt 0.830952 0.234867
vt 0.830950 0.254669
vt 0.745005 0.254667
vt 0.830947 0.274472
vt 0.745003 0.274470
vt 0.830946 0.294274
vt 0.830944 0.314076
vt 0.744999 0.314076
vt 0.973707 0.837951
vt 0.920102 0.938237
vt 0.895886 0.954418
vt 0.744999 0.333878
vt 0.830944 0.333879
vt 0.868978 0.965564
vt 0.782721 0.681212
vt 0.973706 0.808825
vt 0.985135 0.353025
vt 0.985135 0.372827
vt 0.842919 0.372828
vt 0.985135 0.392629
vt 0.842919 0.392631
vt 0.985135 0.412431
vt 0.842919 0.412433
vt 0.985136 0.432234
vt 0.830945 0.452698
vt 0.985136 0.452036
vt 0.842919 0.452039
vt 0.830946 0.472503
vt 0.985136 0.471838
vt 0.830947 0.492308
vt 0.842919 0.471841
vt 0.985137 0.491641
vt 0.830948 0.512113
vt 0.744989 0.512113
vt 0.842919 0.491644
vt 0.985137 0.511443
vt 0.830949 0.531920
vt 0.985137 0.531246
vt 0.842919 0.531249
vt 0.830949 0.551726
vt 0.985138 0.551049
vt 0.842920 0.551052
vt 0.830950 0.571532
vt 0.985138 0.570851
vt 0.842920 0.570855
vt 0.985138 0.590654
vt 0.842920 0.590658
vt 0.744988 0.611146
vt 0.985139 0.610457
vt 0.842920 0.610460
vt 0.830951 0.630953
vt 0.985139 0.630260
vt 0.842920 0.630263
vt 0.830951 0.650760
vt 0.744989 0.650760
vt 0.985139 0.650062
vt 0.842921 0.650066
vt 0.830930 0.017083
vt 0.830931 0.036881
vt 0.745005 0.036881
vt 0.985136 0.016387
vt 0.985135 0.036190
vt 0.842920 0.036188
vt 0.830931 0.056679
vt 0.985135 0.055992
vt 0.842920 0.055990
vt 0.830931 0.076477
vt 0.745006 0.076477
vt 0.985135 0.075794
vt 0.830932 0.096275
vt 0.842920 0.075792
vt 0.985135 0.095596
vt 0.830932 0.116073
vt 0.985135 0.115399
vt 0.842919 0.115397
vt 0.830934 0.135872
vt 0.985135 0.135201
vt 0.842919 0.135199
vt 0.830935 0.155670
vt 0.745006 0.155671
vt 0.985135 0.155003
vt 0.842919 0.155002
vt 0.830936 0.175469
vt 0.985134 0.174806
vt 0.842919 0.174804
vt 0.830937 0.195269
vt 0.985134 0.194608
vt 0.842919 0.194607
vt 0.830939 0.215069
vt 0.985134 0.214410
vt 0.830940 0.234869
vt 0.985134 0.234212
vt 0.842919 0.234211
vt 0.985134 0.254014
vt 0.842919 0.254014
vt 0.985134 0.273816
vt 0.985134 0.293618
vt 0.842919 0.293619
vt 0.985135 0.313420
vt 0.842919 0.313421
vt 0.842919 0.333223
vt 0.985135 0.333223
vt 0.744998 0.353681
vt 0.745000 0.393287
vt 0.745034 0.017043
vt 0.745008 0.234865
vt 0.745001 0.294272
vt 0.940698 0.729135
vt 0.956879 0.753352
vt 0.677991 0.808825
vt 0.694819 0.753352
vt 0.677991 0.837951
vt 0.683673 0.780260
vt 0.731596 0.708539
vt 0.755813 0.692358
vt 0.711001 0.729134
vt 0.811287 0.675531
vt 0.840412 0.675531
vt 0.868978 0.681213
vt 0.895886 0.692359
vt 0.920103 0.708540
vt 0.968025 0.780260
vt 0.968025 0.866517
vt 0.956879 0.893426
vt 0.940697 0.917642
vt 0.782720 0.965564
vt 0.840411 0.971246
vt 0.811286 0.971246
vt 0.711000 0.917642
vt 0.694819 0.893424
vt 0.731595 0.938236
vt 0.683673 0.866516
vt 0.755812 0.954418
vt 0.842919 0.353026
vt 0.842919 0.432236
vt 0.842919 0.511447
vt 0.744988 0.630953
vt 0.745005 0.017083
vt 0.842920 0.016385
vt 0.745005 0.056679
vt 0.745006 0.096276
vt 0.842919 0.095595
vt 0.842919 0.214409
vt 0.842919 0.273816
vn 0.526500 -0.220900 0.821000
vn 0.354600 -0.201400 0.913100
vn 0.169000 -0.174200 0.970100
vn -0.023100 -0.140300 0.989800
vn -0.214300 -0.101000 0.971500
vn -0.397200 -0.057900 0.915900
vn -0.564900 -0.012500 0.825100
vn -0.710900 0.033400 0.702500
vn -0.829500 0.078000 0.553000
vn -0.916300 0.119600 0.382200
vn -0.967900 0.156600 0.196700
vn -0.982200 0.187600 0.003700
vn -0.958900 0.211300 -0.189500
vn -0.898700 0.227000 -0.375400
vn -0.803900 0.233900 -0.546800
vn -0.678200 0.231800 -0.697300
vn -0.526500 0.220900 -0.821000
vn -0.354600 0.201400 -0.913100
vn -0.169000 0.174200 -0.970100
vn 0.023100 0.140300 -0.989800
vn 0.214200 0.101000 -0.971500
vn 0.397200 0.057900 -0.915900
vn 0.564900 0.012500 -0.825100
vn 0.710900 -0.033400 -0.702500
vn 0.829500 -0.078000 -0.553000
vn 0.916300 -0.119600 -0.382200
vn 0.967900 -0.156600 -0.196700
vn 0.982200 -0.187600 -0.003700
vn 0.958900 -0.211300 0.189500
vn 0.898700 -0.227000 0.375400
vn 0.186200 0.972200 0.142200
vn 0.678200 -0.231800 0.697300
vn 0.803900 -0.233900 0.546800
vn -0.186200 -0.972200 -0.142200
vn -0.678300 0.231800 -0.697300
vn 0.186200 0.972200 0.142100
vn 0.186100 0.972200 0.142200
vn -0.186200 -0.972200 -0.142100
vn 0.967900 -0.156600 -0.196800
usemtl score_item_mat
s off
f 2/1/1 4/2/1 67/3/1
f 67/3/2 4/2/2 6/4/2
f 6/4/3 8/5/3 71/6/3
f 8/5/4 10/7/4 73/8/4
f 10/7/5 12/9/5 75/10/5
f 12/9/6 14/11/6 77/12/6
f 14/11/7 16/13/7 79/14/7
f 79/14/8 16/13/8 18/15/8
f 18/15/9 20/16/9 83/17/9
f 20/16/10 22/18/10 85/19/10
f 22/18/11 24/20/11 87/21/11
f 24/20/12 26/22/12 89/23/12
f 89/23/13 26/22/13 28/24/13
f 28/24/14 30/25/14 93/26/14
f 30/25/15 32/27/15 95/28/15
f 32/29/16 34/30/16 97/31/16
f 34/30/17 36/32/17 99/33/17
f 36/32/18 38/34/18 101/35/18
f 38/34/19 40/36/19 103/37/19
f 103/37/20 40/36/20 42/38/20
f 105/39/21 42/38/21 44/40/21
f 107/41/22 44/40/22 46/42/22
f 46/42/23 48/43/23 111/44/23
f 48/43/24 50/45/24 113/46/24
f 113/46/25 50/45/25 52/47/25
f 115/48/26 52/47/26 54/49/26
f 54/49/27 56/50/27 119/51/27
f 119/51/28 56/50/28 58/52/28
f 121/53/29 58/52/29 60/54/29
f 60/54/30 62/55/30 125/56/30
f 30/57/31 22/58/31 20/59/31
f 127/60/32 64/61/32 2/1/32
f 125/56/33 62/55/33 64/61/33
f 21/62/34 53/63/34 7/64/34
f 65/1/1 68/2/1 3/3/1
f 66/65/1 67/66/1 68/67/1
f 3/3/2 68/2/2 70/4/2
f 67/66/2 69/68/2 70/69/2
f 70/4/3 72/5/3 7/6/3
f 69/68/3 71/70/3 72/71/3
f 72/5/4 74/7/4 9/8/4
f 72/71/4 71/70/4 73/72/4
f 74/7/5 76/73/5 11/10/5
f 73/72/5 75/74/5 76/75/5
f 76/73/6 78/76/6 13/12/6
f 76/75/6 75/74/6 77/77/6
f 13/12/7 78/76/7 80/78/7
f 78/79/7 77/77/7 79/80/7
f 80/78/8 82/81/8 17/82/8
f 80/83/8 79/80/8 81/84/8
f 82/81/9 84/85/9 19/17/9
f 81/84/9 83/86/9 84/87/9
f 19/17/10 84/85/10 86/88/10
f 83/86/10 85/89/10 86/90/10
f 21/19/11 86/88/11 88/91/11
f 85/89/11 87/92/11 88/93/11
f 88/91/12 90/22/12 25/23/12
f 87/92/12 89/94/12 90/95/12
f 90/22/13 92/24/13 27/96/13
f 89/94/13 91/97/13 92/98/13
f 27/96/14 92/24/14 94/99/14
f 91/97/14 93/100/14 94/101/14
f 94/99/15 96/102/15 31/103/15
f 93/100/15 95/104/15 96/105/15
f 96/106/16 98/107/16 33/108/16
f 95/109/35 97/110/35 98/111/35
f 33/108/17 98/107/17 100/112/17
f 97/110/17 99/113/17 100/114/17
f 100/112/18 102/115/18 37/116/18
f 100/114/18 99/113/18 101/117/18
f 37/116/19 102/115/19 104/118/19
f 102/119/19 101/117/19 103/120/19
f 104/118/20 106/121/20 41/39/20
f 103/120/20 105/122/20 106/123/20
f 106/121/21 108/124/21 43/41/21
f 105/122/21 107/125/21 108/126/21
f 108/124/22 110/127/22 45/128/22
f 107/125/22 109/129/22 110/130/22
f 45/128/23 110/127/23 112/131/23
f 109/129/23 111/132/23 112/133/23
f 112/131/24 114/134/24 49/46/24
f 111/132/24 113/135/24 114/136/24
f 49/46/25 114/134/25 116/137/25
f 114/136/25 113/135/25 115/138/25
f 51/48/26 116/137/26 118/139/26
f 115/138/26 117/140/26 118/141/26
f 118/139/27 120/50/27 55/51/27
f 118/141/27 117/140/27 119/142/27
f 120/50/28 122/52/28 57/53/28
f 120/143/28 119/142/28 121/144/28
f 57/53/29 122/52/29 124/54/29
f 121/144/29 123/145/29 124/146/29
f 124/54/30 126/55/30 61/56/30
f 123/145/30 125/147/30 126/148/30
f 63/60/32 128/61/32 65/1/32
f 128/149/32 127/150/32 66/65/32
f 126/55/33 128/61/33 63/60/33
f 126/148/33 125/147/33 127/150/33
f 66/151/1 2/1/1 67/3/1
f 69/152/2 67/3/2 6/4/2
f 69/152/3 6/4/3 71/6/3
f 71/6/4 8/5/4 73/8/4
f 73/8/5 10/7/5 75/10/5
f 75/10/6 12/9/6 77/12/6
f 77/12/7 14/11/7 79/14/7
f 81/82/8 79/14/8 18/15/8
f 81/82/9 18/15/9 83/17/9
f 83/17/10 20/16/10 85/19/10
f 85/19/11 22/18/11 87/21/11
f 87/21/12 24/20/12 89/23/12
f 91/96/13 89/23/13 28/24/13
f 91/96/14 28/24/14 93/26/14
f 93/26/15 30/25/15 95/28/15
f 95/153/35 32/29/35 97/31/35
f 97/31/17 34/30/17 99/33/17
f 99/33/18 36/32/18 101/35/18
f 101/35/19 38/34/19 103/37/19
f 105/39/20 103/37/20 42/38/20
f 107/41/21 105/39/21 44/40/21
f 109/128/22 107/41/22 46/42/22
f 109/128/23 46/42/23 111/44/23
f 111/44/24 48/43/24 113/46/24
f 115/48/25 113/46/25 52/47/25
f 117/154/26 115/48/26 54/49/26
f 117/154/27 54/49/27 119/51/27
f 121/53/28 119/51/28 58/52/28
f 123/155/29 121/53/29 60/54/29
f 123/155/30 60/54/30 125/56/30
f 32/64/36 38/156/36 36/157/36
f 62/158/36 58/159/36 64/160/36
f 62/158/31 60/161/31 58/159/31
f 54/162/37 52/163/37 56/164/37
f 50/63/36 58/159/36 52/163/36
f 50/63/36 48/165/36 46/166/36
f 46/166/36 44/167/36 42/168/36
f 42/168/31 40/169/31 38/156/31
f 34/170/31 32/64/31 36/157/31
f 30/57/31 38/156/31 32/64/31
f 30/57/31 28/171/31 26/172/31
f 26/172/31 24/173/31 22/58/31
f 18/62/31 12/174/31 20/59/31
f 18/62/31 16/175/31 14/176/31
f 30/57/31 20/59/31 58/159/31
f 6/177/31 4/178/31 8/179/31
f 20/59/31 12/174/31 58/159/31
f 4/178/31 2/180/31 64/160/31
f 46/166/31 58/159/31 50/63/31
f 64/160/31 58/159/31 12/174/31
f 52/163/36 58/159/36 56/164/36
f 30/57/31 26/172/31 22/58/31
f 14/176/36 12/174/36 18/62/36
f 4/178/31 64/160/31 12/174/31
f 12/174/31 10/181/31 8/179/31
f 42/168/31 38/156/31 30/57/31
f 66/151/32 127/60/32 2/1/32
f 127/60/33 125/56/33 64/61/33
f 58/159/31 46/166/31 42/168/31
f 4/178/31 12/174/31 8/179/31
f 58/159/31 42/168/31 30/57/31
f 63/169/38 1/156/38 3/157/38
f 3/157/38 5/170/38 7/64/38
f 7/64/38 9/57/38 11/171/38
f 11/171/34 13/172/34 15/173/34
f 19/59/34 21/62/34 17/58/34
f 53/63/34 63/169/34 3/157/34
f 57/166/34 59/167/34 61/168/34
f 65/182/1 66/65/1 68/67/1
f 31/179/38 33/177/38 35/178/38
f 35/178/38 37/180/38 39/160/38
f 43/161/34 45/159/34 41/158/34
f 47/164/34 49/162/34 45/159/34
f 51/163/34 53/63/34 49/162/34
f 45/159/34 39/160/34 41/158/34
f 25/176/34 27/174/34 29/181/34
f 63/169/34 57/166/34 61/168/34
f 7/64/34 53/63/34 3/157/34
f 15/173/34 21/62/34 11/171/34
f 21/62/34 23/175/34 25/176/34
f 25/176/34 29/181/34 21/62/34
f 31/179/34 35/178/34 39/160/34
f 21/62/34 7/64/34 11/171/34
f 55/165/34 57/166/34 53/63/34
f 57/166/34 63/169/34 53/63/34
f 53/63/34 31/179/34 39/160/34
f 1/151/1 65/1/1 3/3/1
f 29/181/34 31/179/34 21/62/34
f 21/62/34 15/173/34 17/58/34
f 49/162/34 53/63/34 45/159/34
f 53/63/34 39/160/34 45/159/34
f 21/62/34 31/179/34 53/63/34
f 5/152/2 3/3/2 70/4/2
f 68/67/2 67/66/2 70/69/2
f 5/152/3 70/4/3 7/6/3
f 70/69/3 69/68/3 72/71/3
f 7/6/4 72/5/4 9/8/4
f 74/183/4 72/71/4 73/72/4
f 9/8/5 74/7/5 11/10/5
f 74/183/5 73/72/5 76/75/5
f 11/10/6 76/73/6 13/12/6
f 78/79/6 76/75/6 77/77/6
f 15/14/7 13/12/7 80/78/7
f 80/83/7 78/79/7 79/80/7
f 15/14/8 80/78/8 17/82/8
f 82/184/8 80/83/8 81/84/8
f 17/82/9 82/81/9 19/17/9
f 82/184/9 81/84/9 84/87/9
f 21/19/10 19/17/10 86/88/10
f 84/87/10 83/86/10 86/90/10
f 23/21/11 21/19/11 88/91/11
f 86/90/11 85/89/11 88/93/11
f 23/21/12 88/91/12 25/23/12
f 88/93/12 87/92/12 90/95/12
f 25/23/13 90/22/13 27/96/13
f 90/95/13 89/94/13 92/98/13
f 29/185/14 27/96/14 94/99/14
f 92/98/14 91/97/14 94/101/14
f 29/185/15 94/99/15 31/103/15
f 94/101/15 93/100/15 96/105/15
f 31/186/16 96/106/16 33/108/16
f 96/187/16 95/109/16 98/111/16
f 35/188/17 33/108/17 100/112/17
f 98/111/17 97/110/17 100/114/17
f 35/188/18 100/112/18 37/116/18
f 102/119/18 100/114/18 101/117/18
f 39/189/19 37/116/19 104/118/19
f 104/190/19 102/119/19 103/120/19
f 39/189/20 104/118/20 41/39/20
f 104/190/20 103/120/20 106/123/20
f 41/39/21 106/121/21 43/41/21
f 106/123/21 105/122/21 108/126/21
f 43/41/22 108/124/22 45/128/22
f 108/126/22 107/125/22 110/130/22
f 47/44/23 45/128/23 112/131/23
f 110/130/23 109/129/23 112/133/23
f 47/44/24 112/131/24 49/46/24
f 112/133/24 111/132/24 114/136/24
f 51/48/25 49/46/25 116/137/25
f 116/191/25 114/136/25 115/138/25
f 53/154/26 51/48/26 118/139/26
f 116/191/26 115/138/26 118/141/26
f 53/154/39 118/139/39 55/51/39
f 120/143/27 118/141/27 119/142/27
f 55/51/28 120/50/28 57/53/28
f 122/192/28 120/143/28 121/144/28
f 59/155/29 57/53/29 124/54/29
f 122/192/29 121/144/29 124/146/29
f 59/155/30 124/54/30 61/56/30
f 124/146/30 123/145/30 126/148/30
f 1/151/32 63/60/32 65/1/32
f 65/182/32 128/149/32 66/65/32
f 61/56/33 126/55/33 63/60/33
f 128/149/33 126/148/33 127/150/33
